HIERARCHY
ROOT Hips
{
	OFFSET 53.765099 -6.489625 91.646400
	CHANNELS 6 Xposition Yposition Zposition Xrotation Yrotation Zrotation
	JOINT spine
	{
		OFFSET 0.000000 -0.393702 6.846367
		CHANNELS 3 Xrotation Yrotation Zrotation
		JOINT spine1
		{
			OFFSET 0.000000 -0.000001 9.496208
			CHANNELS 3 Xrotation Yrotation Zrotation
			JOINT spine2
			{
				OFFSET 0.000000 -0.000001 9.099091
				CHANNELS 3 Xrotation Yrotation Zrotation
				JOINT Neck
				{
					OFFSET 0.000000 -1.113784 23.361198
					CHANNELS 3 Xrotation Yrotation Zrotation
					JOINT Head
					{
						OFFSET 0.000000 -0.000001 7.058014
						CHANNELS 3 Xrotation Yrotation Zrotation
						End Site
						{
							OFFSET 0.000000 5.634187 17.084396
						}
					}
				}
				JOINT RightShoulder
				{
					OFFSET -3.831360 0.533490 9.826309
					CHANNELS 3 Xrotation Yrotation Zrotation
					JOINT RightArm
					{
						OFFSET 0.000000 -0.000002 12.888100
						CHANNELS 3 Xrotation Yrotation Zrotation
						JOINT RightArmRoll
						{
							OFFSET 0.000000 -0.000001 6.506165
							CHANNELS 3 Xrotation Yrotation Zrotation
							JOINT RightForeArm
							{
								OFFSET 0.000000 -0.000003 18.950104
								CHANNELS 3 Xrotation Yrotation Zrotation
								JOINT RightForeArmRoll
								{
									OFFSET 0.000000 -0.000001 7.300919
									CHANNELS 3 Xrotation Yrotation Zrotation
									JOINT RightHand
									{
										OFFSET 0.000000 -0.000002 14.651398
										CHANNELS 3 Xrotation Yrotation Zrotation
										End Site
										{
											OFFSET 0.000000 0.000000 0.100006
										}
									}
								}
							}
						}
					}
				}
				JOINT LeftShoulder
				{
					OFFSET 3.831360 0.533490 9.826309
					CHANNELS 3 Xrotation Yrotation Zrotation
					JOINT LeftArm
					{
						OFFSET 0.000000 -0.000002 12.888100
						CHANNELS 3 Xrotation Yrotation Zrotation
						JOINT LeftArmRoll
						{
							OFFSET 0.000000 -0.000001 6.506165
							CHANNELS 3 Xrotation Yrotation Zrotation
							JOINT LeftForeArm
							{
								OFFSET 0.000000 -0.000003 18.950104
								CHANNELS 3 Xrotation Yrotation Zrotation
								JOINT LeftForeArmRoll
								{
									OFFSET 0.000000 -0.000001 7.300919
									CHANNELS 3 Xrotation Yrotation Zrotation
									JOINT LeftHand
									{
										OFFSET 0.000000 -0.000002 14.651398
										CHANNELS 3 Xrotation Yrotation Zrotation
										End Site
										{
											OFFSET 0.000000 0.000000 0.100006
										}
									}
								}
							}
						}
					}
				}
			}
		}
	}
	JOINT RightUpLeg
	{
		OFFSET -6.068371 0.933477 -1.112778
		CHANNELS 3 Xrotation Yrotation Zrotation
		JOINT RightUpLegRoll
		{
			OFFSET 0.000000 -0.000003 17.179604
			CHANNELS 3 Xrotation Yrotation Zrotation
			JOINT RightLeg
			{
				OFFSET 0.000000 0.000003 -21.274300
				CHANNELS 3 Xrotation Yrotation Zrotation
				JOINT RightLegRoll
				{
					OFFSET 0.000000 -0.000003 21.343903
					CHANNELS 3 Xrotation Yrotation Zrotation
					JOINT RightFoot
					{
						OFFSET 0.000000 -0.000003 17.765198
						CHANNELS 3 Xrotation Yrotation Zrotation
						JOINT RightToeBase
						{
							OFFSET 0.000000 -0.000002 14.850807
							CHANNELS 3 Xrotation Yrotation Zrotation
							End Site
							{
								OFFSET 0.006294 0.829004 7.192139
							}
						}
					}
				}
			}
		}
	}
	JOINT LeftUpLeg
	{
		OFFSET 6.068371 0.933477 -1.112778
		CHANNELS 3 Xrotation Yrotation Zrotation
		JOINT LeftUpLegRoll
		{
			OFFSET 0.000000 -0.000003 17.179703
			CHANNELS 3 Xrotation Yrotation Zrotation
			JOINT LeftLeg
			{
				OFFSET 0.000000 -0.000003 21.274193
				CHANNELS 3 Xrotation Yrotation Zrotation
				JOINT LeftLegRoll
				{
					OFFSET 0.000000 -0.000003 21.541199
					CHANNELS 3 Xrotation Yrotation Zrotation
					JOINT LeftFoot
					{
						OFFSET 0.000000 -0.000003 17.567902
						CHANNELS 3 Xrotation Yrotation Zrotation
						JOINT LeftToeBase
						{
							OFFSET 0.000000 -0.000003 14.850800
							CHANNELS 3 Xrotation Yrotation Zrotation
							End Site
							{
								OFFSET -0.028210 0.829004 7.192123
							}
						}
					}
				}
			}
		}
	}
}
MOTION
Frames: 6
Frame Time: 0.041667
54.396507 -6.764686 91.628891 -6.504213 -0.440052 -0.009922 -1.658772 -0.085115 -0.095735 0.693697 -0.168529 -0.187450 2.338770 -0.170715 -0.185296 30.575916 3.725490 -0.178914 -11.295645 -1.922229 0.080996 9.488880 -63.495371 10.287358 -73.935363 -124.254665 -94.500257 -0.000002 0.000013 -0.000008 59.413527 -8.588856 3.282268 -0.000000 -0.000001 -2.999990 -5.000211 -7.998705 0.000151 2.400018 66.066262 -1.874964 -72.116962 129.551408 89.498161 0.000003 -0.000000 0.000003 55.113111 15.333034 -6.604666 -0.000002 -0.000005 3.010792 -5.000232 7.998726 -0.000172 3.592550 -174.872036 1.967020 -179.999991 0.000005 -1.206001 174.769228 -1.513672 -0.237564 0.000001 -0.000001 0.037098 68.594989 6.928097 2.044534 25.456948 -7.355614 0.000009 6.866649 175.520234 -0.640385 -0.000005 -0.000004 -1.257590 -4.818716 1.347243 0.195412 -0.000006 -0.000001 -0.033947 68.780264 -6.924439 -2.054936 25.456955 7.355615 -0.000011 
54.394608 -6.773278 91.629295 -6.504040 -0.437882 -0.004493 -1.658261 -0.085729 -0.095496 0.695307 -0.169830 -0.187284 2.340379 -0.172007 -0.185126 30.566118 3.718493 -0.176889 -11.294995 -1.914761 0.082144 9.510623 -63.499258 10.311299 -74.098407 -124.143879 -94.601897 -0.000003 0.000012 -0.000009 59.338546 -8.618703 3.297387 0.000001 -0.000003 -2.999990 -5.000212 -7.998700 0.000152 2.426010 66.069458 -1.903847 -72.252480 129.429189 89.566716 0.000005 0.000001 0.000006 55.092152 15.316677 -6.597897 -0.000001 -0.000005 3.010791 -5.000231 7.998724 -0.000171 3.592831 -174.874044 1.964430 -179.999991 0.000005 -1.206002 174.767015 -1.511680 -0.238438 0.000001 -0.000001 0.037098 68.595528 6.928134 2.044406 25.456948 -7.355614 0.000011 6.863698 175.516218 -0.640119 -0.000005 -0.000004 -1.257610 -4.821650 1.343810 0.195437 -0.000006 -0.000002 -0.033947 68.779301 -6.924418 -2.054792 25.456959 7.355617 -0.000011 
54.395309 -6.767076 91.626892 -6.503679 -0.436063 0.000840 -1.657783 -0.086283 -0.095263 0.696736 -0.170985 -0.187115 2.341810 -0.173155 -0.184954 30.556880 3.712896 -0.175339 -11.294058 -1.909521 0.082936 9.533583 -63.502769 10.336695 -74.260665 -124.032438 -94.707062 -0.000001 0.000014 -0.000010 59.272006 -8.645708 3.311338 0.000001 -0.000003 -2.999987 -5.000210 -7.998703 0.000150 2.449880 66.073379 -1.930239 -72.391454 129.308581 89.638050 0.000006 -0.000000 0.000002 55.074551 15.300331 -6.591127 -0.000001 -0.000005 3.010788 -5.000233 7.998721 -0.000171 3.592568 -174.876038 1.963233 -179.999991 0.000005 -1.206002 174.765717 -1.510671 -0.238380 0.000001 -0.000001 0.037099 68.596355 6.928080 2.044546 25.456952 -7.355614 0.000010 6.860575 175.513226 -0.639715 -0.000005 -0.000004 -1.257630 -4.824464 1.340665 0.195461 -0.000006 -0.000002 -0.033947 68.778250 -6.924427 -2.054759 25.456959 7.355616 -0.000011 
54.393208 -6.772159 91.628883 -6.503126 -0.434697 0.006043 -1.657302 -0.086760 -0.095039 0.697994 -0.171946 -0.186937 2.343071 -0.174109 -0.184773 30.548202 3.708940 -0.174306 -11.293141 -1.906879 0.083346 9.557431 -63.505794 10.363180 -74.423667 -123.920272 -94.818359 0.000002 0.000015 -0.000009 59.215725 -8.669192 3.323765 0.000001 -0.000002 -2.999990 -5.000211 -7.998706 0.000148 2.470727 66.077955 -1.953135 -72.535325 129.189681 89.714193 0.000008 -0.000001 0.000003 55.060638 15.284331 -6.584296 0.000001 -0.000001 3.010790 -5.000233 7.998723 -0.000172 3.591709 -174.877022 1.963784 -179.999991 0.000004 -1.206002 174.765580 -1.512669 -0.237569 0.000001 -0.000001 0.037099 68.597304 6.928107 2.044491 25.456952 -7.355614 0.000010 6.857275 175.511191 -0.639148 -0.000005 -0.000004 -1.257650 -4.827120 1.337850 0.195484 -0.000007 -0.000002 -0.033947 68.777300 -6.924403 -2.054715 25.456953 7.355615 -0.000010 
54.393307 -6.769129 91.629295 -6.502347 -0.433889 0.011083 -1.656812 -0.087141 -0.094826 0.699087 -0.172667 -0.186747 2.344161 -0.174825 -0.184579 30.540101 3.706867 -0.173822 -11.292343 -1.907218 0.083351 9.581732 -63.508205 10.390273 -74.587503 -123.807451 -94.936672 -0.000001 0.000014 -0.000008 59.171206 -8.688509 3.334382 0.000001 -0.000001 -2.999992 -5.000212 -7.998706 0.000150 2.487702 66.083187 -1.971576 -72.683199 129.073268 89.793874 0.000006 -0.000001 0.000003 55.050584 15.269083 -6.577694 -0.000002 -0.000005 3.010789 -5.000233 7.998727 -0.000171 3.590182 -174.877022 1.966387 -179.999991 0.000005 -1.206002 174.766837 -1.518645 -0.238083 0.000001 -0.000001 0.037100 68.598465 6.928112 2.044518 25.456952 -7.355614 0.000010 6.853773 175.509197 -0.638504 -0.000005 -0.000004 -1.257670 -4.829596 1.335434 0.195508 -0.000007 -0.000001 -0.033947 68.776351 -6.924417 -2.054577 25.456959 7.355615 -0.000010 
54.391308 -6.770976 91.629890 -6.501307 -0.433742 0.015928 -1.656302 -0.087407 -0.094624 0.700016 -0.173101 -0.186539 2.345091 -0.175255 -0.184369 30.532489 3.706934 -0.173928 -11.291967 -1.910918 0.082921 9.606165 -63.509981 10.417654 -74.748491 -123.694767 -95.058318 -0.000002 0.000015 -0.000011 59.140183 -8.703035 3.342920 0.000001 -0.000001 -2.999989 -5.000211 -7.998706 0.000151 2.499851 66.088992 -1.984507 -72.837813 128.959354 89.880508 0.000007 0.000001 0.000003 55.044819 15.254888 -6.571285 -0.000001 -0.000007 3.010790 -5.000232 7.998722 -0.000171 3.587930 -174.875997 1.971348 -179.999991 0.000005 -1.206001 174.769801 -1.527617 -0.237814 0.000001 -0.000001 0.037101 68.599941 6.928100 2.044424 25.456955 -7.355614 0.000009 6.850051 175.508158 -0.637639 -0.000005 -0.000005 -1.257680 -4.831862 1.333436 0.195530 -0.000006 -0.000001 -0.033947 68.775504 -6.924400 -2.054526 25.456960 7.355614 -0.000009 
